# xmcd
#
# Track frame offsets:
#	150
#	16872
#	45488
#	75956
#	111486
#	139080
#	174822
#	200503
#	230240
#	253949
#	286670
#	301778
#
# Disc length: 4376 seconds
#
# Revision: 0
# Processed by: cddbd v1.5.1PL2 Copyright (c) Steve Scherf et al.
# Submitted via: dBpowerAMP V4.0
#
DISCID=9611160c
DTITLE=Pappo y Tony Coleman - Homenaje a B.B. King
DYEAR=2006
DGENRE=Blues
TTITLE0=Tributo a BB King
TTITLE1=I Ain't Drunk
TTITLE2=All Your Love
TTITLE3=How Blue Can You Get
TTITLE4=Rock Me Baby
TTITLE5=The Thrill Is Gone
TTITLE6=Master Charge
TTITLE7=Every Day I Have The Blues
TTITLE8=Chop This and Solo
TTITLE9=Sweet Little Angel
TTITLE10=Killing Floor
TTITLE11=Let The Good Times Roll
EXTD=
EXTT0=
EXTT1=
EXTT2=
EXTT3=
EXTT4=
EXTT5=
EXTT6=
EXTT7=
EXTT8=
EXTT9=
EXTT10=
EXTT11=
PLAYORDER=
